PathFileType	4	(X/Y/Z)	C:\Users\WrightLab\Desktop\Jo\P5V16.trc
DataRate	CameraRate	NumFrames	NumMarkers	Units	OrigDataRate	OrigDataStartFrame	OrigNumFrames
100.00	100.00	       10	19	mm	100.00	192	       767
Frame#	Time	Headset_Front			Headset_Back			Headset_Left			Headset_Right			Left_Shoulder			Right_Shoulder			Sternum			C7			Left Elbow			Right Elbow			Left Wrist			Right Wrist			Left ASIS			Right ASIS			S2			Left Knee			Right Knee			Left Ankle			Right Ankle			
		X1	Y1	Z1	X2	Y2	Z2	X3	Y3	Z3	X4	Y4	Z4	X5	Y5	Z5	X6	Y6	Z6	X7	Y7	Z7	X8	Y8	Z8	X9	Y9	Z9	X10	Y10	Z10	X11	Y11	Z11	X12	Y12	Z12	X13	Y13	Z13	X14	Y14	Z14	X15	Y15	Z15	X16	Y16	Z16	X17	Y17	Z17	X18	Y18	Z18	X19	Y19	Z19	

192	1.910	-325.75671	1591.63062	-920.15588	-124.55154	966.58337	-1281.30859													-181.02306	1302.13562	-990.32977	-181.73123	1506.44214	-1194.07996				-454.97513	1160.03723	-1172.37256	85.21260	1061.38806	-899.74719	-447.49469	1033.05444	-966.50726	-22.27429	915.12329	-1011.02490	-309.06958	925.33148	-1024.52087				-10.17663	478.26215	-1089.78687	-385.33887	524.10242	-945.46411	-32.13403	67.98723	-1230.15332	-406.90765	103.88345	-1062.72192	
193	1.920	-329.50467	1591.55933	-916.76605	-126.42763	966.27374	-1279.27136													-184.46649	1302.01233	-987.56647	-185.11183	1506.18530	-1190.54016	131.73279	1209.42615	-1070.22534	-457.84671	1158.93542	-1169.95117	82.16758	1061.24280	-896.62683	-449.73907	1030.95679	-964.27832	-25.99160	915.16351	-1007.80188	-312.47235	925.11603	-1021.56195				-14.41960	477.92953	-1088.56567	-389.37698	523.45782	-943.20557	-32.13403	67.98723	-1230.15332	-415.13397	102.73475	-1057.10522	
194	1.930	-333.39587	1591.33923	-913.46851	-128.43369	965.99603	-1276.89575													-187.97571	1301.71106	-984.39209	-188.70543	1505.55054	-1186.43530	127.07266	1208.83545	-1067.57605	-461.16449	1158.59875	-1167.17200	79.13724	1061.70728	-892.99121	-452.76617	1030.85107	-961.79279	-28.68427	914.39838	-1004.31531	-315.19711	924.94000	-1020.43964				-16.82892	477.60809	-1087.89429	-393.47812	524.40527	-942.66351	-32.13403	67.98723	-1230.15332	-424.45370	102.78928	-1051.64294	
195	1.940	-337.32361	1590.76062	-909.48126	-130.42708	966.15845	-1274.50256													-192.38048	1301.59009	-980.49817	-192.54324	1505.17371	-1183.55115	124.91863	1209.86230	-1064.01440	-464.69162	1158.16223	-1164.90027	75.39541	1060.97522	-889.70135	-456.09091	1029.78345	-958.97131	-32.99969	914.38397	-1001.24335	-319.16660	922.56787	-1018.76349				-19.94941	477.41248	-1086.88489	-397.68112	523.76569	-941.03979	-32.13403	67.98723	-1230.15332	-433.65558	102.33672	-1044.44507	
196	1.950	-341.33859	1590.85571	-906.28943	-132.72519	966.03503	-1272.03625													-197.33588	1300.60779	-977.66290	-196.46390	1504.90356	-1180.24792	118.41891	1209.11255	-1060.16455	-468.02124	1157.24316	-1162.25879	71.39714	1060.84399	-885.71436	-459.40637	1029.05469	-956.17517	-36.92969	914.57458	-998.15997	-321.26740	923.46301	-1013.31177				-23.03711	477.85336	-1085.22534	-402.37350	523.67444	-938.40375	-32.13403	67.98723	-1230.15332				
197	1.960	-345.63080	1590.23596	-902.45038	-135.21164	965.09320	-1268.75049													-200.00664	1300.21045	-974.57715	-200.38641	1504.39612	-1176.13379	116.91348	1209.80493	-1056.75928	-471.67947	1156.12451	-1159.01074	68.37001	1060.76306	-881.63763	-462.93152	1028.74060	-952.91248	-39.36546	913.66260	-994.23450	-325.97546	922.87134	-1011.73090				-26.07914	477.64609	-1084.07520	-406.69772	523.56604	-936.98114	-33.43874	68.19584	-1229.90649				
198	1.970	-349.87888	1590.15247	-899.21033	-137.80389	965.18774	-1265.94629													-204.33218	1299.94604	-970.70331	-204.43576	1503.82019	-1172.02246	111.11132	1208.51416	-1051.26599	-475.72443	1155.38318	-1155.88123	64.08445	1060.26758	-877.71277	-466.53848	1027.29822	-950.00446	-43.41695	912.68579	-990.86353	-330.29556	921.69055	-1008.29889				-28.67782	477.59421	-1082.51685	-410.97949	522.90576	-935.85480	-33.43874	68.19584	-1229.90649				
199	1.980	-354.29721	1589.45667	-894.90985	-140.46367	964.82239	-1262.55383													-207.66124	1298.74988	-966.62537	-208.84081	1503.52942	-1168.85071	108.35240	1209.59412	-1049.11792	-479.04657	1154.92468	-1152.78540	59.80865	1060.42407	-874.04706	-470.61310	1026.53979	-947.25153	-48.33811	912.24640	-986.74323	-332.02795	921.76917	-1002.97845				-31.50715	477.25800	-1080.03308	-414.92831	522.30707	-934.15723	-33.43874	68.19584	-1229.90649				
200	1.990	-358.76089	1589.35376	-891.90845	-143.45738	964.50580	-1259.38013													-213.32069	1298.44189	-963.73004	-213.22659	1502.96179	-1164.70581	104.33640	1209.51489	-1044.93921	-483.43399	1154.16870	-1149.20264	56.23586	1059.89832	-869.93005	-474.54663	1026.98413	-944.24091	-51.45361	912.24908	-982.40222	-336.69440	920.68542	-1001.66193				-33.14457	477.35886	-1078.21167	-420.01199	522.20001	-932.96240	-33.43874	68.19584	-1229.90649				
201	2.000	-363.27063	1588.72412	-887.23962	-146.83238	964.16132	-1256.51282													-217.75441	1298.01611	-959.71655	-217.70070	1502.69519	-1160.75977	99.54317	1208.70471	-1040.69385	-487.46124	1153.31226	-1146.22388	52.10010	1059.65662	-865.72699	-478.81021	1025.25757	-940.10040	-55.56176	911.83539	-977.93549	-341.74408	919.66638	-999.40662				-36.68416	476.94159	-1075.48096	-423.73367	520.63037	-930.53906	-34.37886	68.05418	-1228.48755				
